# xmcd CD database file
#
# Track frame offsets:
#	150
#	18767
#	43700
#
# Disc length: 831 seconds
#
# Revision: 0
# Processed by: cddbd v1.5PL3 Copyright (c) Steve Scherf et al.
# Submitted via: CDex 1.51
#
DISCID=18033d03
DTITLE=Fayray - Daydream Cafe
DYEAR=1999
DGENRE=JPop
TTITLE0=Daydream Cafe
TTITLE1=Daydream Cafe 〜Nightdream Mix
TTITLE2=Daydream Cafe 〜Original Backing Track
EXTD=YEAR: 1999
EXTT0=
EXTT1=
EXTT2=
PLAYORDER=
